<svg width="92" height="61" viewBox="0 0 92 61" fill="none" xmlns="http://www.w3.org/2000/svg">
<path d="M14.1862 52.3C13.3062 52.3 12.5462 51.98 11.9062 51.34C11.3062 50.7 11.0062 49.92 11.0062 49C11.0062 48.04 11.3062 47.26 11.9062 46.66C12.5462 46.06 13.3062 45.76 14.1862 45.76C15.0662 45.76 15.8062 46.06 16.4062 46.66C17.0462 47.26 17.3662 48.04 17.3662 49C17.3662 49.92 17.0462 50.7 16.4062 51.34C15.8062 51.98 15.0662 52.3 14.1862 52.3ZM65.841 20.2C68.401 20.2 70.621 20.7 72.501 21.7C74.421 22.66 75.901 24.14 76.941 26.14C78.021 28.14 78.561 30.66 78.561 33.7V52H74.301V34.12C74.301 30.8 73.501 28.3 71.901 26.62C70.341 24.9 68.121 24.04 65.241 24.04C63.081 24.04 61.201 24.5 59.601 25.42C58.041 26.3 56.821 27.6 55.941 29.32C55.101 31 54.681 33.04 54.681 35.44V52H50.421V34.12C50.421 30.8 49.621 28.3 48.021 26.62C46.421 24.9 44.181 24.04 41.301 24.04C39.181 24.04 37.321 24.5 35.721 25.42C34.121 26.3 32.881 27.6 32.001 29.32C31.161 31 30.741 33.04 30.741 35.44V52H26.481V20.5H30.561V29.02L29.901 27.52C30.861 25.24 32.401 23.46 34.521 22.18C36.681 20.86 39.221 20.2 42.141 20.2C45.221 20.2 47.841 20.98 50.001 22.54C52.161 24.06 53.561 26.36 54.201 29.44L52.521 28.78C53.441 26.22 55.061 24.16 57.381 22.6C59.741 21 62.561 20.2 65.841 20.2Z" fill="black"/>
<path d="M11.9062 51.34L10.4471 52.7079L10.4692 52.7314L10.492 52.7542L11.9062 51.34ZM11.9062 46.66L10.5383 45.2009L10.5148 45.223L10.492 45.2458L11.9062 46.66ZM16.4062 46.66L14.992 48.0742L15.0148 48.097L15.0383 48.1191L16.4062 46.66ZM16.4062 51.34L14.992 49.9258L14.9692 49.9486L14.9471 49.9721L16.4062 51.34ZM14.1862 50.3C13.8533 50.3 13.5973 50.2027 13.3204 49.9258L10.492 52.7542C11.4951 53.7573 12.759 54.3 14.1862 54.3V50.3ZM13.3652 49.9721C13.131 49.7222 13.0062 49.4392 13.0062 49H9.00617C9.00617 50.4008 9.48135 51.6778 10.4471 52.7079L13.3652 49.9721ZM13.0062 49C13.0062 48.4945 13.1459 48.2487 13.3204 48.0742L10.492 45.2458C9.4664 46.2713 9.00617 47.5855 9.00617 49H13.0062ZM13.2741 48.1191C13.5421 47.8678 13.8125 47.76 14.1862 47.76V43.76C12.7998 43.76 11.5503 44.2522 10.5383 45.2009L13.2741 48.1191ZM14.1862 47.76C14.5577 47.76 14.7823 47.8645 14.992 48.0742L17.8204 45.2458C16.8301 44.2555 15.5746 43.76 14.1862 43.76V47.76ZM15.0383 48.1191C15.2346 48.3031 15.3662 48.5349 15.3662 49H19.3662C19.3662 47.5451 18.8578 46.2169 17.7741 45.2009L15.0383 48.1191ZM15.3662 49C15.3662 49.3994 15.25 49.6677 14.992 49.9258L17.8204 52.7542C18.8423 51.7323 19.3662 50.4406 19.3662 49H15.3662ZM14.9471 49.9721C14.7265 50.2074 14.5153 50.3 14.1862 50.3V54.3C15.617 54.3 16.8858 53.7526 17.8652 52.7079L14.9471 49.9721ZM72.501 21.7L71.5618 23.4657L71.584 23.4776L71.6066 23.4889L72.501 21.7ZM76.941 26.14L75.1666 27.0627L75.1738 27.0766L75.1812 27.0903L76.941 26.14ZM78.561 52V54H80.561V52H78.561ZM74.301 52H72.301V54H74.301V52ZM71.901 26.62L70.4196 27.9636L70.4359 27.9817L70.4527 27.9993L71.901 26.62ZM59.601 25.42L60.5837 27.162L60.5908 27.1579L60.598 27.1538L59.601 25.42ZM55.941 29.32L54.1605 28.409L54.1563 28.4173L54.1522 28.4256L55.941 29.32ZM54.681 52V54H56.681V52H54.681ZM50.421 52H48.421V54H50.421V52ZM48.021 26.62L46.5566 27.9822L46.5646 27.9908L46.5727 27.9993L48.021 26.62ZM35.721 25.42L36.6849 27.1724L36.7015 27.1633L36.718 27.1538L35.721 25.42ZM32.001 29.32L30.2205 28.409L30.2163 28.4173L30.2122 28.4256L32.001 29.32ZM30.741 52V54H32.741V52H30.741ZM26.481 52H24.481V54H26.481V52ZM26.481 20.5V18.5H24.481V20.5H26.481ZM30.561 20.5H32.561V18.5H30.561V20.5ZM30.561 29.02L28.7304 29.8255L32.561 29.02H30.561ZM29.901 27.52L28.0577 26.7439L27.7236 27.5374L28.0704 28.3255L29.901 27.52ZM34.521 22.18L35.5548 23.8922L35.5639 23.8866L34.521 22.18ZM50.001 22.54L48.83 24.1614L48.84 24.1685L48.85 24.1756L50.001 22.54ZM54.201 29.44L53.4697 31.3015L56.9115 32.6536L56.1592 29.0331L54.201 29.44ZM52.521 28.78L50.6389 28.1036L49.982 29.9313L51.7897 30.6415L52.521 28.78ZM57.381 22.6L58.497 24.2597L58.5033 24.2554L57.381 22.6ZM65.841 22.2C68.1393 22.2 70.024 22.6478 71.5618 23.4657L73.4402 19.9343C71.2181 18.7522 68.6627 18.2 65.841 18.2V22.2ZM71.6066 23.4889C73.1296 24.2504 74.3108 25.417 75.1666 27.0627L78.7155 25.2173C77.4912 22.863 75.7124 21.0696 73.3954 19.9111L71.6066 23.4889ZM75.1812 27.0903C76.0593 28.7165 76.561 30.8842 76.561 33.7H80.561C80.561 30.4358 79.9827 27.5635 78.7008 25.1897L75.1812 27.0903ZM76.561 33.7V52H80.561V33.7H76.561ZM78.561 50H74.301V54H78.561V50ZM76.301 52V34.12H72.301V52H76.301ZM76.301 34.12C76.301 30.5076 75.4312 27.4267 73.3493 25.2407L70.4527 27.9993C71.5708 29.1733 72.301 31.0924 72.301 34.12H76.301ZM73.3825 25.2764C71.3553 23.0413 68.5395 22.04 65.241 22.04V26.04C67.7026 26.04 69.3267 26.7587 70.4196 27.9636L73.3825 25.2764ZM65.241 22.04C62.7912 22.04 60.5555 22.5641 58.6041 23.6862L60.598 27.1538C61.8465 26.4359 63.3708 26.04 65.241 26.04V22.04ZM58.6184 23.678C56.6896 24.7661 55.2045 26.3685 54.1605 28.409L57.7215 30.231C58.4375 28.8314 59.3925 27.8339 60.5837 27.162L58.6184 23.678ZM54.1522 28.4256C53.1402 30.4495 52.681 32.8132 52.681 35.44H56.681C56.681 33.2668 57.0618 31.5505 57.7299 30.2144L54.1522 28.4256ZM52.681 35.44V52H56.681V35.44H52.681ZM54.681 50H50.421V54H54.681V50ZM52.421 52V34.12H48.421V52H52.421ZM52.421 34.12C52.421 30.5076 51.5512 27.4267 49.4693 25.2407L46.5727 27.9993C47.6908 29.1733 48.421 31.0924 48.421 34.12H52.421ZM49.4854 25.2578C47.424 23.0417 44.6015 22.04 41.301 22.04V26.04C43.7605 26.04 45.4181 26.7583 46.5566 27.9822L49.4854 25.2578ZM41.301 22.04C38.8839 22.04 36.67 22.5673 34.7241 23.6862L36.718 27.1538C37.972 26.4327 39.4782 26.04 41.301 26.04V22.04ZM34.7572 23.6676C32.7862 24.7516 31.2714 26.355 30.2205 28.409L33.7815 30.231C34.4906 28.845 35.4559 27.8484 36.6849 27.1724L34.7572 23.6676ZM30.2122 28.4256C29.2002 30.4495 28.741 32.8132 28.741 35.44H32.741C32.741 33.2668 33.1218 31.5505 33.7899 30.2144L30.2122 28.4256ZM28.741 35.44V52H32.741V35.44H28.741ZM30.741 50H26.481V54H30.741V50ZM28.481 52V20.5H24.481V52H28.481ZM26.481 22.5H30.561V18.5H26.481V22.5ZM28.561 20.5V29.02H32.561V20.5H28.561ZM32.3916 28.2145L31.7316 26.7145L28.0704 28.3255L28.7304 29.8255L32.3916 28.2145ZM31.7443 28.2961C32.54 26.4063 33.7964 24.9538 35.5548 23.8921L33.4873 20.4679C31.0057 21.9662 29.182 24.0737 28.0577 26.7439L31.7443 28.2961ZM35.5639 23.8866C37.3642 22.7864 39.5315 22.2 42.141 22.2V18.2C38.9105 18.2 35.9978 18.9336 33.4781 20.4734L35.5639 23.8866ZM42.141 22.2C44.8685 22.2 47.0621 22.8845 48.83 24.1614L51.172 20.9186C48.62 19.0755 45.5735 18.2 42.141 18.2V22.2ZM48.85 24.1756C50.5175 25.349 51.6852 27.1632 52.2428 29.8469L56.1592 29.0331C55.4368 25.5568 53.8045 22.771 51.152 20.9044L48.85 24.1756ZM54.9323 27.5785L53.2523 26.9185L51.7897 30.6415L53.4697 31.3015L54.9323 27.5785ZM54.4032 29.4564C55.1748 27.3092 56.5201 25.589 58.497 24.2597L56.265 20.9403C53.6019 22.731 51.7072 25.1308 50.6389 28.1036L54.4032 29.4564ZM58.5033 24.2554C60.4843 22.9124 62.8992 22.2 65.841 22.2V18.2C62.2228 18.2 58.9977 19.0876 56.2587 20.9446L58.5033 24.2554Z" fill="black"/>
</svg>
